<svg width="107" height="57" viewBox="0 0 107 57" fill="none" xmlns="http://www.w3.org/2000/svg">
<g clip-path="url(#clip0_564_1405)">
<path d="M75.5245 0H80.081C80.363 0.213019 81.9077 0.247508 82.3617 0.33337C83.616 0.570301 84.8457 0.801167 86.0693 1.17556C96.1282 4.23393 103.731 12.4908 105.927 22.7422C106.621 25.9815 106.62 30.8291 105.964 34.0744C105.692 35.4163 105.134 37.0353 104.676 38.3341C104.197 39.6959 103.474 41.5278 102.681 42.7325C102.032 43.7183 101.361 44.8042 100.69 45.7645C100.272 46.3626 99.7548 46.7242 99.2779 47.4537C99.1354 47.3943 99.0818 47.3372 98.9623 47.4C98.682 47.5469 98.5407 47.8539 98.4363 48.1323L98.4809 48.3697C97.5885 49.3114 96.7095 49.8758 95.7663 50.7367C94.9549 51.4772 94.0764 52.0152 93.1399 52.5802C89.9701 54.6744 86.1748 55.9095 82.4538 56.5959C81.8602 56.7055 80.2803 56.7952 79.8313 57H76.2539C75.5876 56.7222 74.7388 56.8208 74.0284 56.7278C72.6742 56.5508 71.2233 56.145 69.9109 55.7709C66.8791 54.9354 64.0114 53.5941 61.4291 51.804C60.5596 51.1935 59.8867 50.4897 59.0579 49.8729C57.8505 48.9745 56.9347 47.9752 55.8753 46.927L50.8384 41.8973C49.9598 41.0299 49.0524 40.1641 48.2079 39.265C46.4506 37.394 44.3345 35.6297 42.6963 33.663C41.4064 36.1361 40.8745 37.2906 38.772 39.1889C29.8578 47.2379 15.6218 41.4596 14.6412 29.5567C14.3139 25.5836 15.56 22.218 18.0866 19.1439C22.4421 13.8447 30.3327 12.6319 36.2411 15.9327C38.1016 16.9722 39.4621 18.4112 40.9277 19.8836L43.9023 22.8368L59.8962 38.6123C60.8148 39.5019 61.4727 40.2776 62.4824 41.1461C63.2871 41.8386 64.0109 42.8009 64.8815 43.5567C69.1386 47.2537 74.5785 48.8282 80.1748 48.2728C81.8367 48.1064 83.1285 47.6842 84.6849 47.1467C88.713 45.7556 92.0861 42.9632 94.5444 39.5296C95.3815 38.3607 96.585 35.9087 97.015 34.5429C98.529 29.7326 98.181 23.919 95.711 19.4727C94.3199 16.885 92.4061 14.4607 90.0801 12.7188C86.6635 10.16 82.2869 8.53608 78.0041 8.66639C74.5305 8.71465 71.7075 9.16331 68.6488 10.8866C67.4576 11.5575 66.3508 12.0847 65.3227 13.0319C65.0702 13.2612 63.625 14.6654 63.4552 14.6806C63.081 14.5066 62.5002 13.9478 62.1802 13.6474C61.5123 13.0174 61.1734 12.5779 60.4898 11.9084C59.5415 10.98 58.3727 9.91299 57.5322 8.87692C57.4753 8.80656 57.5188 8.54098 57.5752 8.45281C58.0047 7.77516 58.7323 7.29984 59.3439 6.79274C60.339 5.96875 61.3459 5.20365 62.4405 4.51574C62.7951 4.2929 63.1525 4.02722 63.5211 3.82677C65.6957 2.65165 68.039 1.68276 70.4085 0.969807C71.3814 0.677142 72.5513 0.518011 73.5521 0.297184C74.158 0.163444 74.8717 0.24225 75.4765 0.0182669L75.5245 0Z" fill="white"/>
<path d="M26.8741 0H31.2097C31.6534 0.23176 33.0456 0.260235 33.6172 0.34606C35.4163 0.616201 36.9043 1.03695 38.6082 1.64287C41.8159 2.78352 44.6921 4.3253 47.3006 6.52249C47.9455 7.05848 48.6886 7.63494 49.2776 8.24396C49.1831 8.43912 49.1537 8.4154 49.1965 8.58117L49.3883 8.75651C49.2992 9.29946 49.956 9.32061 50.3696 9.33965C51.1219 9.95646 51.6602 10.6372 52.3428 11.3004C53.2541 12.1857 54.166 13.0058 55.018 13.9602C55.5306 14.5344 56.202 15.0531 56.7303 15.6215C58.2448 17.1948 59.8118 18.7142 61.3152 20.2991C61.6318 20.6326 62.0216 20.9278 62.3416 21.2562C63.0179 21.9496 63.5926 22.7049 64.3465 23.3254C67.9686 14.0404 79.5811 11.1558 87.194 17.4289C93.3113 22.4692 94.1881 31.4519 89.157 37.5595C88.9408 37.8223 88.6901 38.029 88.4684 38.2768C84.8407 42.3332 78.2023 44.0891 72.9255 41.9457C71.4634 41.3656 70.0907 40.5834 68.8476 39.6221C68.2361 39.1405 67.4392 38.315 66.8657 37.7457L63.5445 34.4276L50.9997 21.9344L45.6041 16.5621C44.7735 15.7433 43.9626 14.9081 43.1131 14.1085C42.7012 13.7208 42.1536 13.3992 41.7584 13.0247C40.7831 12.1003 39.7659 11.5446 38.581 10.9206C33.3382 8.10062 27.1048 7.76586 21.5883 10.008C20.2284 10.5709 18.2895 11.7151 17.0586 12.5478C16.806 12.7187 16.1337 13.4994 15.9696 13.5453C15.2597 13.6346 14.5691 14.367 14.3351 15.0252L14.3503 15.0942C13.8003 15.7406 12.7423 17.0197 12.2775 17.7332C9.95977 21.3494 8.88843 25.6204 9.2259 29.8984C9.57756 34.1963 11.0524 37.7698 13.7236 41.0386C14.776 42.3264 15.6646 43.2959 17.0606 44.2363C18.9031 45.7234 21.5234 47.0268 23.8291 47.6769C29.271 49.2115 35.4143 48.2415 40.1415 45.1485C41.0653 44.544 42.9131 43.0412 43.7287 42.2977C44.2789 42.9005 44.8936 43.3823 45.4704 43.9493C46.0277 44.4972 46.5314 45.12 47.1071 45.6545C47.8514 46.3456 48.5403 46.9378 49.184 47.7372C49.4167 48.6137 48.2025 49.0417 47.9792 49.8612C47.8243 50.0525 47.4859 50.2483 47.2844 50.4206C42.7648 54.2846 36.4082 56.6193 30.5053 56.8397C26.2105 57.0362 21.9251 56.2858 17.9545 54.6422C12.8705 52.568 8.26285 48.6143 5.22994 44.0675C-0.00561405 36.2185 -0.840764 26.258 2.73411 17.5714C5.1512 11.7751 9.40433 6.92617 14.8445 3.76432C17.7213 2.11201 21.3028 0.920344 24.5575 0.322167C25.1953 0.204958 26.335 0.244629 26.8741 0Z" fill="white"/>
<path d="M49.1838 47.7373L49.6142 48.1868C49.35 48.8739 48.5921 49.4797 47.979 49.8614C48.2023 49.0418 49.4165 48.6138 49.1838 47.7373Z" fill="white" fill-opacity="0.94902"/>
<path d="M14.3502 15.0943L14.335 15.0252C14.569 14.3671 15.2595 13.6346 15.9694 13.5454C15.6801 13.827 14.6088 14.9366 14.3502 15.0943Z" fill="white" fill-opacity="0.94902"/>
<path d="M49.2776 8.24414C49.4811 8.43262 50.2163 9.14111 50.3696 9.33983C49.956 9.32079 49.2991 9.29964 49.3883 8.75669L49.1965 8.58135C49.1536 8.41559 49.1831 8.4393 49.2776 8.24414Z" fill="white" fill-opacity="0.94902"/>
<path d="M98.4807 48.3697L98.436 48.1322C98.5405 47.8538 98.6818 47.5468 98.9621 47.3999C99.0816 47.3371 99.1352 47.3942 99.2776 47.4536C99.0023 47.8068 98.8102 48.0681 98.4807 48.3697Z" fill="white" fill-opacity="0.945098"/>
</g>
<defs>
<clipPath id="clip0_564_1405">
<rect width="107" height="57" fill="white"/>
</clipPath>
</defs>
</svg>
